<?xml version="1.0" encoding="UTF-8"?><svg xmlns="http://www.w3.org/2000/svg" xmlns:xlink="http://www.w3.org/1999/xlink" fill-opacity="1" color-rendering="auto" color-interpolation="auto" text-rendering="auto" stroke="black" stroke-linecap="square" width="674" stroke-miterlimit="10" shape-rendering="auto" stroke-opacity="1" fill="black" stroke-dasharray="none" font-weight="normal" stroke-width="1" height="257" font-family="'Dialog'" font-style="normal" stroke-linejoin="miter" font-size="12px" stroke-dashoffset="0" image-rendering="auto">
  <!--Generated by ySVG 2.5-->
  <defs id="genericDefs"/>
  <g>
    <defs id="defs1">
      <clipPath clipPathUnits="userSpaceOnUse" id="clipPath1">
        <path d="M0 0 L674 0 L674 257 L0 257 L0 0 Z"/>
      </clipPath>
      <clipPath clipPathUnits="userSpaceOnUse" id="clipPath2">
        <path d="M339 44 L1013 44 L1013 301 L339 301 L339 44 Z"/>
      </clipPath>
    </defs>
    <g fill="white" text-rendering="geometricPrecision" shape-rendering="geometricPrecision" transform="translate(-339,-44)" stroke="white">
      <rect x="339" width="674" height="257" y="44" clip-path="url(#clipPath2)" stroke="none"/>
    </g>
    <g fill="yellow" text-rendering="geometricPrecision" shape-rendering="geometricPrecision" transform="matrix(1,0,0,1,-339,-44)" stroke="yellow">
      <rect x="641.0159" y="59" clip-path="url(#clipPath2)" width="81.9682" rx="4" ry="4" height="44" stroke="none"/>
    </g>
    <g font-size="16px" stroke-linecap="butt" transform="matrix(1,0,0,1,-339,-44)" text-rendering="geometricPrecision" font-family="sans-serif" shape-rendering="geometricPrecision" stroke-miterlimit="1.45">
      <text x="644.6484" xml:space="preserve" y="87.2852" clip-path="url(#clipPath2)" stroke="none">Simulation</text>
      <rect x="641.0159" y="59" clip-path="url(#clipPath2)" fill="none" width="81.9682" rx="4" ry="4" height="44"/>
    </g>
    <g fill="yellow" text-rendering="geometricPrecision" shape-rendering="geometricPrecision" transform="matrix(1,0,0,1,-339,-44)" stroke="yellow">
      <rect x="354.5" y="59" clip-path="url(#clipPath2)" width="94" rx="4" ry="4" height="44" stroke="none"/>
    </g>
    <g font-size="16px" stroke-linecap="butt" transform="matrix(1,0,0,1,-339,-44)" text-rendering="geometricPrecision" font-family="sans-serif" shape-rendering="geometricPrecision" stroke-miterlimit="1.45">
      <text x="359.2695" xml:space="preserve" y="87.2852" clip-path="url(#clipPath2)" stroke="none">Simulacrum</text>
      <rect x="354.5" y="59" clip-path="url(#clipPath2)" fill="none" width="94" rx="4" ry="4" height="44"/>
    </g>
    <g fill="yellow" text-rendering="geometricPrecision" shape-rendering="geometricPrecision" transform="matrix(1,0,0,1,-339,-44)" stroke="yellow">
      <rect x="596.5" y="242" clip-path="url(#clipPath2)" width="171" rx="4" ry="4" height="44" stroke="none"/>
    </g>
    <g font-size="16px" stroke-linecap="butt" transform="matrix(1,0,0,1,-339,-44)" text-rendering="geometricPrecision" font-family="sans-serif" shape-rendering="geometricPrecision" stroke-miterlimit="1.45">
      <text x="615.3008" xml:space="preserve" y="270.2852" clip-path="url(#clipPath2)" stroke="none">RealityCounterpart</text>
      <rect x="596.5" y="242" clip-path="url(#clipPath2)" fill="none" width="171" rx="4" ry="4" height="44"/>
    </g>
    <g fill="yellow" text-rendering="geometricPrecision" shape-rendering="geometricPrecision" transform="matrix(1,0,0,1,-339,-44)" stroke="yellow">
      <rect x="915.5" y="59" clip-path="url(#clipPath2)" width="81.9682" rx="4" ry="4" height="44" stroke="none"/>
    </g>
    <g font-size="16px" stroke-linecap="butt" transform="matrix(1,0,0,1,-339,-44)" text-rendering="geometricPrecision" font-family="sans-serif" shape-rendering="geometricPrecision" stroke-miterlimit="1.45">
      <text x="928.9138" xml:space="preserve" y="87.2852" clip-path="url(#clipPath2)" stroke="none">Context</text>
      <rect x="915.5" y="59" clip-path="url(#clipPath2)" fill="none" width="81.9682" rx="4" ry="4" height="44"/>
    </g>
    <g stroke-linecap="butt" transform="matrix(1,0,0,1,-339,-44)" fill="navy" text-rendering="geometricPrecision" shape-rendering="geometricPrecision" stroke="navy" stroke-miterlimit="1.45">
      <path fill="none" d="M637.0182 81 L459.471 81" clip-path="url(#clipPath2)"/>
      <path d="M645.0182 81 C645.0182 83.2091 643.2274 85 641.0182 85 C638.8091 85 637.0182 83.2091 637.0182 81 C637.0182 78.7909 638.8091 77 641.0182 77 C643.2274 77 645.0182 78.7909 645.0182 81 Z" clip-path="url(#clipPath2)" stroke="none"/>
      <path d="M448.471 81 L460.471 87 L460.471 75 Z" clip-path="url(#clipPath2)" stroke="none"/>
      <rect x="487.629" y="69.1992" clip-path="url(#clipPath2)" fill="white" width="114.2578" height="23.6016" stroke="none"/>
      <text x="489.629" font-size="16px" y="87.2852" clip-path="url(#clipPath2)" font-family="sans-serif" stroke="none" xml:space="preserve">hasSimulacrum</text>
      <path fill="none" d="M682 107.0261 L682 231.0312" clip-path="url(#clipPath2)"/>
      <path d="M682 99.0261 C684.2092 99.0261 686 100.817 686 103.0261 C686 105.2353 684.2092 107.0261 682 107.0261 C679.7908 107.0261 678 105.2353 678 103.0261 C678 100.817 679.7908 99.0261 682 99.0261 Z" clip-path="url(#clipPath2)" stroke="none"/>
      <path d="M682 242.0312 L688 230.0312 L676 230.0312 Z" clip-path="url(#clipPath2)" stroke="none"/>
      <rect x="600.4023" y="160.6992" clip-path="url(#clipPath2)" fill="white" width="163.1953" height="23.6016" stroke="none"/>
      <text x="602.4023" font-size="16px" y="178.7852" clip-path="url(#clipPath2)" font-family="sans-serif" stroke="none" xml:space="preserve">hasRealityCounterpart</text>
      <path fill="none" d="M726.9783 81 L904.5237 81" clip-path="url(#clipPath2)"/>
      <path d="M718.9783 81 C718.9783 78.7909 720.7691 77 722.9783 77 C725.1874 77 726.9783 78.7909 726.9783 81 C726.9783 83.2091 725.1874 85 722.9783 85 C720.7691 85 718.9783 83.2091 718.9783 81 Z" clip-path="url(#clipPath2)" stroke="none"/>
      <path d="M915.5237 81 L903.5237 75 L903.5237 87 Z" clip-path="url(#clipPath2)" stroke="none"/>
      <rect x="776.7733" y="69.1992" clip-path="url(#clipPath2)" fill="white" width="84.9375" height="23.6016" stroke="none"/>
      <text x="778.7733" font-size="16px" y="87.2852" clip-path="url(#clipPath2)" font-family="sans-serif" stroke="none" xml:space="preserve">hasContext</text>
    </g>
  </g>
</svg>
